<?xml version="1.0" encoding="UTF-8" ?>
<svg xmlns="http://www.w3.org/2000/svg" xmlns:xlink="http://www.w3.org/1999/xlink" width="1040pt" height="1458pt" viewBox="0.00 0.00 1040.11 1458.40">
<g id="graph0" class="graph" transform="scale(1 1) rotate(0) translate(4 1454.4)">
<title>CPP_Learning_Roadmap_2025</title>
<polygon fill="#ffffff" stroke="transparent" points="-4,4 -4,-1454.4 1036.1069,-1454.4 1036.1069,4 -4,4"/>
<g id="clust2" class="cluster">
<title>cluster_1</title>
<polygon fill="none" stroke="#4caf50" stroke-dasharray="5,2" points="102,-1076.4 102,-1340.8 321,-1340.8 321,-1076.4 102,-1076.4"/>
<text text-anchor="middle" x="211.5" y="-1324.2" font-family="Times,serif" font-size="14.00" fill="#000000">Stage 1: Fundamentals (2–3 weeks)</text>
</g>
<g id="clust3" class="cluster">
<title>cluster_2</title>
<polygon fill="none" stroke="#ff5722" stroke-dasharray="5,2" points="66,-788.4 66,-1068.4 356,-1068.4 356,-788.4 66,-788.4"/>
<text text-anchor="middle" x="211" y="-1051.8" font-family="Times,serif" font-size="14.00" fill="#000000">Stage 2: OOP Core (3–4 weeks)</text>
</g>
<g id="clust4" class="cluster">
<title>cluster_3</title>
<polygon fill="none" stroke="#03a9f4" stroke-dasharray="5,2" points="84,-516 84,-780.4 340,-780.4 340,-516 84,-516"/>
<text text-anchor="middle" x="212" y="-763.8" font-family="Times,serif" font-size="14.00" fill="#000000">Stage 3: STL &amp; Modern C++ (2–3 weeks)</text>
</g>
<g id="clust6" class="cluster">
<title>cluster_5</title>
<polygon fill="none" stroke="#ffa000" stroke-dasharray="5,2" points="545,-114 545,-378.4 777,-378.4 777,-114 545,-114"/>
<text text-anchor="middle" x="661" y="-361.8" font-family="Times,serif" font-size="14.00" fill="#000000">Stage 5: Interview Sprint (2–3 weeks)</text>
</g>
<!-- Start -->
<g id="node1" class="node">
<title>Start</title>
<path fill="#e8f5e9" stroke="#000000" d="M190,-1442.6C190,-1442.6 12,-1442.6 12,-1442.6 6,-1442.6 0,-1436.6 0,-1430.6 0,-1430.6 0,-1368.6 0,-1368.6 0,-1362.6 6,-1356.6 12,-1356.6 12,-1356.6 190,-1356.6 190,-1356.6 196,-1356.6 202,-1362.6 202,-1368.6 202,-1368.6 202,-1430.6 202,-1430.6 202,-1436.6 196,-1442.6 190,-1442.6"/>
<text text-anchor="middle" x="101" y="-1411.3" font-family="Helvetica,Arial,sans-serif" font-size="13.00" fill="#000000">Start Learning C++</text>
<text text-anchor="middle" x="101" y="-1395.7" font-family="Helvetica,Arial,sans-serif" font-size="13.00" fill="#000000">Choose IDE + Compiler</text>
<text text-anchor="middle" x="101" y="-1380.1" font-family="Helvetica,Arial,sans-serif" font-size="13.00" fill="#000000">VS / CLion / VSCode + CMake</text>
</g>
<!-- S1 -->
<g id="node2" class="node">
<title>S1</title>
<path fill="#c8e6c9" stroke="#000000" d="M300,-1307.8008C300,-1307.8008 122,-1307.8008 122,-1307.8008 116,-1307.8008 110,-1301.8008 110,-1295.8008 110,-1295.8008 110,-1218.5992 110,-1218.5992 110,-1212.5992 116,-1206.5992 122,-1206.5992 122,-1206.5992 300,-1206.5992 300,-1206.5992 306,-1206.5992 312,-1212.5992 312,-1218.5992 312,-1218.5992 312,-1295.8008 312,-1295.8008 312,-1301.8008 306,-1307.8008 300,-1307.8008"/>
<text text-anchor="middle" x="211" y="-1292.3" font-family="Helvetica,Arial,sans-serif" font-size="13.00" fill="#000000">Stage 1: Fundamentals</text>
<text text-anchor="middle" x="211" y="-1276.7" font-family="Helvetica,Arial,sans-serif" font-size="13.00" fill="#000000">2–3 weeks</text>
<text text-anchor="middle" x="211" y="-1261.1" font-family="Helvetica,Arial,sans-serif" font-size="13.00" fill="#000000">Variables, Functions, Arrays</text>
<text text-anchor="middle" x="211" y="-1245.5" font-family="Helvetica,Arial,sans-serif" font-size="13.00" fill="#000000">Pointers &amp; References Intro</text>
<text text-anchor="middle" x="211" y="-1229.9" font-family="Helvetica,Arial,sans-serif" font-size="13.00" fill="#000000">const/static</text>
<text text-anchor="middle" x="211" y="-1214.3" font-family="Helvetica,Arial,sans-serif" font-size="13.00" fill="#000000">CMake Multi-file Projects</text>
</g>
<!-- Start&#45;&gt;S1 -->
<g id="edge1" class="edge">
<title>Start-&gt;S1</title>
<path fill="none" stroke="#000000" d="M134.3021,-1356.4889C143.725,-1344.2905 154.1598,-1330.7822 164.2193,-1317.7597"/>
<polygon fill="#000000" stroke="#000000" points="167.8037,-1319.99 171.8157,-1307.9258 161.156,-1314.8549 167.8037,-1319.99"/>
</g>
<!-- p1 -->
<g id="node8" class="node">
<title>p1</title>
<path fill="#e8f5e9" stroke="#000000" d="M300,-1170.4C300,-1170.4 122,-1170.4 122,-1170.4 116,-1170.4 110,-1164.4 110,-1158.4 110,-1158.4 110,-1096.4 110,-1096.4 110,-1090.4 116,-1084.4 122,-1084.4 122,-1084.4 300,-1084.4 300,-1084.4 306,-1084.4 312,-1090.4 312,-1096.4 312,-1096.4 312,-1158.4 312,-1158.4 312,-1164.4 306,-1170.4 300,-1170.4"/>
<text text-anchor="middle" x="211" y="-1131.3" font-family="Helvetica,Arial,sans-serif" font-size="13.00" fill="#000000">Console Calculator</text>
<text text-anchor="middle" x="211" y="-1115.7" font-family="Helvetica,Arial,sans-serif" font-size="13.00" fill="#000000">+ Guess Number Game</text>
</g>
<!-- S1&#45;&gt;p1 -->
<g id="edge2" class="edge">
<title>S1-&gt;p1</title>
<path fill="none" stroke="#000000" d="M211,-1206.2721C211,-1198.535 211,-1190.5197 211,-1182.6949"/>
<polygon fill="#000000" stroke="#000000" points="215.2001,-1182.6229 211,-1170.6229 206.8001,-1182.623 215.2001,-1182.6229"/>
</g>
<!-- S2 -->
<g id="node3" class="node">
<title>S2</title>
<path fill="#ffccbc" stroke="#000000" d="M335.8693,-1035.7002C335.8693,-1035.7002 86.1307,-1035.7002 86.1307,-1035.7002 80.1307,-1035.7002 74.1307,-1029.7002 74.1307,-1023.7002 74.1307,-1023.7002 74.1307,-930.2998 74.1307,-930.2998 74.1307,-924.2998 80.1307,-918.2998 86.1307,-918.2998 86.1307,-918.2998 335.8693,-918.2998 335.8693,-918.2998 341.8693,-918.2998 347.8693,-924.2998 347.8693,-930.2998 347.8693,-930.2998 347.8693,-1023.7002 347.8693,-1023.7002 347.8693,-1029.7002 341.8693,-1035.7002 335.8693,-1035.7002"/>
<text text-anchor="middle" x="211" y="-1019.9" font-family="Helvetica,Arial,sans-serif" font-size="13.00" fill="#000000">Stage 2: Core OOP</text>
<text text-anchor="middle" x="211" y="-1004.3" font-family="Helvetica,Arial,sans-serif" font-size="13.00" fill="#000000">3–4 weeks</text>
<text text-anchor="middle" x="211" y="-988.7" font-family="Helvetica,Arial,sans-serif" font-size="13.00" fill="#000000">Classes &amp; Objects</text>
<text text-anchor="middle" x="211" y="-973.1" font-family="Helvetica,Arial,sans-serif" font-size="13.00" fill="#000000">Constructors/Destructors</text>
<text text-anchor="middle" x="211" y="-957.5" font-family="Helvetica,Arial,sans-serif" font-size="13.00" fill="#000000">Deep Copy, Operator Overloading</text>
<text text-anchor="middle" x="211" y="-941.9" font-family="Helvetica,Arial,sans-serif" font-size="13.00" fill="#000000">Inheritance, Polymorphism, Virtual Functions</text>
<text text-anchor="middle" x="211" y="-926.3" font-family="Helvetica,Arial,sans-serif" font-size="13.00" fill="#000000">Templates &amp; Friends</text>
</g>
<!-- p2 -->
<g id="node9" class="node">
<title>p2</title>
<path fill="#ffccbc" stroke="#000000" d="M317.7775,-882.4C317.7775,-882.4 104.2225,-882.4 104.2225,-882.4 98.2225,-882.4 92.2225,-876.4 92.2225,-870.4 92.2225,-870.4 92.2225,-808.4 92.2225,-808.4 92.2225,-802.4 98.2225,-796.4 104.2225,-796.4 104.2225,-796.4 317.7775,-796.4 317.7775,-796.4 323.7775,-796.4 329.7775,-802.4 329.7775,-808.4 329.7775,-808.4 329.7775,-870.4 329.7775,-870.4 329.7775,-876.4 323.7775,-882.4 317.7775,-882.4"/>
<text text-anchor="middle" x="211" y="-843.3" font-family="Helvetica,Arial,sans-serif" font-size="13.00" fill="#000000">Student / Library Management System</text>
<text text-anchor="middle" x="211" y="-827.7" font-family="Helvetica,Arial,sans-serif" font-size="13.00" fill="#000000">(with deep copy + virtual functions)</text>
</g>
<!-- S2&#45;&gt;p2 -->
<g id="edge4" class="edge">
<title>S2-&gt;p2</title>
<path fill="none" stroke="#000000" d="M211,-918.2461C211,-910.4782 211,-902.5356 211,-894.8261"/>
<polygon fill="#000000" stroke="#000000" points="215.2001,-894.557 211,-882.557 206.8001,-894.5571 215.2001,-894.557"/>
</g>
<!-- S3 -->
<g id="node4" class="node">
<title>S3</title>
<path fill="#b3e5fc" stroke="#000000" d="M300.802,-747.4008C300.802,-747.4008 121.198,-747.4008 121.198,-747.4008 115.198,-747.4008 109.198,-741.4008 109.198,-735.4008 109.198,-735.4008 109.198,-658.1992 109.198,-658.1992 109.198,-652.1992 115.198,-646.1992 121.198,-646.1992 121.198,-646.1992 300.802,-646.1992 300.802,-646.1992 306.802,-646.1992 312.802,-652.1992 312.802,-658.1992 312.802,-658.1992 312.802,-735.4008 312.802,-735.4008 312.802,-741.4008 306.802,-747.4008 300.802,-747.4008"/>
<text text-anchor="middle" x="211" y="-731.9" font-family="Helvetica,Arial,sans-serif" font-size="13.00" fill="#000000">Stage 3: Intermediate</text>
<text text-anchor="middle" x="211" y="-716.3" font-family="Helvetica,Arial,sans-serif" font-size="13.00" fill="#000000">2–3 weeks</text>
<text text-anchor="middle" x="211" y="-700.7" font-family="Helvetica,Arial,sans-serif" font-size="13.00" fill="#000000">STL Containers (vector/map/set)</text>
<text text-anchor="middle" x="211" y="-685.1" font-family="Helvetica,Arial,sans-serif" font-size="13.00" fill="#000000">Iterators, Algorithms, Lambda</text>
<text text-anchor="middle" x="211" y="-669.5" font-family="Helvetica,Arial,sans-serif" font-size="13.00" fill="#000000">auto, nullptr, range-for</text>
<text text-anchor="middle" x="211" y="-653.9" font-family="Helvetica,Arial,sans-serif" font-size="13.00" fill="#000000">File I/O, Exceptions</text>
</g>
<!-- p3 -->
<g id="node10" class="node">
<title>p3</title>
<path fill="#b3e5fc" stroke="#000000" d="M300,-610C300,-610 122,-610 122,-610 116,-610 110,-604 110,-598 110,-598 110,-536 110,-536 110,-530 116,-524 122,-524 122,-524 300,-524 300,-524 306,-524 312,-530 312,-536 312,-536 312,-598 312,-598 312,-604 306,-610 300,-610"/>
<text text-anchor="middle" x="211" y="-570.9" font-family="Helvetica,Arial,sans-serif" font-size="13.00" fill="#000000">Batch File Renamer</text>
<text text-anchor="middle" x="211" y="-555.3" font-family="Helvetica,Arial,sans-serif" font-size="13.00" fill="#000000">or Simple Logging System</text>
</g>
<!-- S3&#45;&gt;p3 -->
<g id="edge6" class="edge">
<title>S3-&gt;p3</title>
<path fill="none" stroke="#000000" d="M211,-645.8721C211,-638.135 211,-630.1197 211,-622.2949"/>
<polygon fill="#000000" stroke="#000000" points="215.2001,-622.2229 211,-610.2229 206.8001,-622.223 215.2001,-622.2229"/>
</g>
<!-- S4 -->
<g id="node5" class="node">
<title>S4</title>
<path fill="#d1c4e9" stroke="#000000" d="M300,-487.8008C300,-487.8008 122,-487.8008 122,-487.8008 116,-487.8008 110,-481.8008 110,-475.8008 110,-475.8008 110,-398.5992 110,-398.5992 110,-392.5992 116,-386.5992 122,-386.5992 122,-386.5992 300,-386.5992 300,-386.5992 306,-386.5992 312,-392.5992 312,-398.5992 312,-398.5992 312,-475.8008 312,-475.8008 312,-481.8008 306,-487.8008 300,-487.8008"/>
<text text-anchor="middle" x="211" y="-472.3" font-family="Helvetica,Arial,sans-serif" font-size="13.00" fill="#000000">Stage 4: Real-World Projects</text>
<text text-anchor="middle" x="211" y="-456.7" font-family="Helvetica,Arial,sans-serif" font-size="13.00" fill="#000000">4–6 weeks</text>
<text text-anchor="middle" x="211" y="-441.1" font-family="Helvetica,Arial,sans-serif" font-size="13.00" fill="#000000">Smart Pointers &amp; RAII</text>
<text text-anchor="middle" x="211" y="-425.5" font-family="Helvetica,Arial,sans-serif" font-size="13.00" fill="#000000">Multithreading + Thread Pool</text>
<text text-anchor="middle" x="211" y="-409.9" font-family="Helvetica,Arial,sans-serif" font-size="13.00" fill="#000000">Socket &amp; Network Programming</text>
<text text-anchor="middle" x="211" y="-394.3" font-family="Helvetica,Arial,sans-serif" font-size="13.00" fill="#000000">Design Patterns &amp; Engineering</text>
</g>
<!-- p4a -->
<g id="node11" class="node">
<title>p4a</title>
<path fill="#d1c4e9" stroke="#000000" d="M1020.214,-480.2C1020.214,-480.2 791.786,-480.2 791.786,-480.2 785.786,-480.2 779.786,-474.2 779.786,-468.2 779.786,-468.2 779.786,-406.2 779.786,-406.2 779.786,-400.2 785.786,-394.2 791.786,-394.2 791.786,-394.2 1020.214,-394.2 1020.214,-394.2 1026.214,-394.2 1032.214,-400.2 1032.214,-406.2 1032.214,-406.2 1032.214,-468.2 1032.214,-468.2 1032.214,-474.2 1026.214,-480.2 1020.214,-480.2"/>
<text text-anchor="middle" x="906" y="-433.3" font-family="Helvetica,Arial,sans-serif" font-size="13.00" fill="#000000">Option 1: High-Performance Thread Pool</text>
</g>
<!-- S4&#45;&gt;p4a -->
<g id="edge8" class="edge">
<title>S4-&gt;p4a</title>
<path fill="none" stroke="#000000" d="M291.7026,-487.9491C304.1285,-493.7322 317.1198,-498.7205 330,-502 376.5159,-513.8438 715.0688,-512.0731 762,-502 779.7002,-498.2009 797.8503,-492.0501 815.0406,-485.0136"/>
<polygon fill="#000000" stroke="#000000" points="816.7829,-488.8368 826.184,-480.2776 813.4973,-481.106 816.7829,-488.8368"/>
</g>
<!-- p4b -->
<g id="node12" class="node">
<title>p4b</title>
<path fill="#d1c4e9" stroke="#000000" d="M750,-480.2C750,-480.2 572,-480.2 572,-480.2 566,-480.2 560,-474.2 560,-468.2 560,-468.2 560,-406.2 560,-406.2 560,-400.2 566,-394.2 572,-394.2 572,-394.2 750,-394.2 750,-394.2 756,-394.2 762,-400.2 762,-406.2 762,-406.2 762,-468.2 762,-468.2 762,-474.2 756,-480.2 750,-480.2"/>
<text text-anchor="middle" x="661" y="-433.3" font-family="Helvetica,Arial,sans-serif" font-size="13.00" fill="#000000">Option 2: Tiny HTTP Server</text>
</g>
<!-- S4&#45;&gt;p4b -->
<g id="edge9" class="edge">
<title>S4-&gt;p4b</title>
<path fill="none" stroke="#000000" d="M291.7026,-487.9491C304.1285,-493.7322 317.1198,-498.7205 330,-502 375.6545,-513.6244 496.3455,-513.6244 542,-502 556.4804,-498.313 571.1012,-492.4663 584.9013,-485.7585"/>
<polygon fill="#000000" stroke="#000000" points="586.9885,-489.4089 595.7743,-480.2193 583.1754,-481.9242 586.9885,-489.4089"/>
</g>
<!-- p4c -->
<g id="node13" class="node">
<title>p4c</title>
<path fill="#d1c4e9" stroke="#000000" d="M529.5663,-480.2C529.5663,-480.2 342.4337,-480.2 342.4337,-480.2 336.4337,-480.2 330.4337,-474.2 330.4337,-468.2 330.4337,-468.2 330.4337,-406.2 330.4337,-406.2 330.4337,-400.2 336.4337,-394.2 342.4337,-394.2 342.4337,-394.2 529.5663,-394.2 529.5663,-394.2 535.5663,-394.2 541.5663,-400.2 541.5663,-406.2 541.5663,-406.2 541.5663,-468.2 541.5663,-468.2 541.5663,-474.2 535.5663,-480.2 529.5663,-480.2"/>
<text text-anchor="middle" x="436" y="-433.3" font-family="Helvetica,Arial,sans-serif" font-size="13.00" fill="#000000">Option 3: Snake / Breakout Game</text>
</g>
<!-- S4&#45;&gt;p4c -->
<g id="edge10" class="edge">
<title>S4-&gt;p4c</title>
<path fill="none" stroke="#000000" d="M312.0742,-437.2C314.0333,-437.2 315.9923,-437.2 317.9513,-437.2"/>
<polygon fill="#000000" stroke="#000000" points="317.9853,-441.3999 329.9854,-437.2 317.9854,-432.9999 317.9853,-441.3999"/>
</g>
<!-- S5 -->
<g id="node6" class="node">
<title>S5</title>
<path fill="#ffecb3" stroke="#000000" d="M750,-345.4008C750,-345.4008 572,-345.4008 572,-345.4008 566,-345.4008 560,-339.4008 560,-333.4008 560,-333.4008 560,-256.1992 560,-256.1992 560,-250.1992 566,-244.1992 572,-244.1992 572,-244.1992 750,-244.1992 750,-244.1992 756,-244.1992 762,-250.1992 762,-256.1992 762,-256.1992 762,-333.4008 762,-333.4008 762,-339.4008 756,-345.4008 750,-345.4008"/>
<text text-anchor="middle" x="661" y="-329.9" font-family="Helvetica,Arial,sans-serif" font-size="13.00" fill="#000000">Stage 5: Interview Sprint</text>
<text text-anchor="middle" x="661" y="-314.3" font-family="Helvetica,Arial,sans-serif" font-size="13.00" fill="#000000">2–3 weeks</text>
<text text-anchor="middle" x="661" y="-298.7" font-family="Helvetica,Arial,sans-serif" font-size="13.00" fill="#000000">High-frequency Questions</text>
<text text-anchor="middle" x="661" y="-283.1" font-family="Helvetica,Arial,sans-serif" font-size="13.00" fill="#000000">Project Review</text>
<text text-anchor="middle" x="661" y="-267.5" font-family="Helvetica,Arial,sans-serif" font-size="13.00" fill="#000000">Knowledge Summary</text>
<text text-anchor="middle" x="661" y="-251.9" font-family="Helvetica,Arial,sans-serif" font-size="13.00" fill="#000000">Mock Interviews</text>
</g>
<!-- resume -->
<g id="node14" class="node">
<title>resume</title>
<path fill="#ffecb3" stroke="#000000" d="M750,-208C750,-208 572,-208 572,-208 566,-208 560,-202 560,-196 560,-196 560,-134 560,-134 560,-128 566,-122 572,-122 572,-122 750,-122 750,-122 756,-122 762,-128 762,-134 762,-134 762,-196 762,-196 762,-202 756,-208 750,-208"/>
<text text-anchor="middle" x="661" y="-168.9" font-family="Helvetica,Arial,sans-serif" font-size="13.00" fill="#000000">Polish Resume</text>
<text text-anchor="middle" x="661" y="-153.3" font-family="Helvetica,Arial,sans-serif" font-size="13.00" fill="#000000">+ 200+ Interview Questions</text>
</g>
<!-- S5&#45;&gt;resume -->
<g id="edge14" class="edge">
<title>S5-&gt;resume</title>
<path fill="none" stroke="#000000" d="M661,-243.8721C661,-236.135 661,-228.1197 661,-220.2949"/>
<polygon fill="#000000" stroke="#000000" points="665.2001,-220.2229 661,-208.2229 656.8001,-220.223 665.2001,-220.2229"/>
</g>
<!-- End -->
<g id="node7" class="node">
<title>End</title>
<path fill="#ffab91" stroke="#000000" d="M769.1792,-86C769.1792,-86 552.8208,-86 552.8208,-86 546.8208,-86 540.8208,-80 540.8208,-74 540.8208,-74 540.8208,-12 540.8208,-12 540.8208,-6 546.8208,0 552.8208,0 552.8208,0 769.1792,0 769.1792,0 775.1792,0 781.1792,-6 781.1792,-12 781.1792,-12 781.1792,-74 781.1792,-74 781.1792,-80 775.1792,-86 769.1792,-86"/>
<text text-anchor="middle" x="661" y="-46.9" font-family="Helvetica,Arial,sans-serif" font-size="13.00" fill="#000000">C++ Job Ready!</text>
<text text-anchor="middle" x="661" y="-31.3" font-family="Helvetica,Arial,sans-serif" font-size="13.00" fill="#000000">Backend / Game / System / Embedded</text>
</g>
<!-- p1&#45;&gt;S2 -->
<g id="edge3" class="edge">
<title>p1-&gt;S2</title>
<path fill="none" stroke="#000000" d="M211,-1084.3014C211,-1072.9737 211,-1060.4496 211,-1048.0749"/>
<polygon fill="#000000" stroke="#000000" points="215.2001,-1047.7998 211,-1035.7998 206.8001,-1047.7998 215.2001,-1047.7998"/>
</g>
<!-- p2&#45;&gt;S3 -->
<g id="edge5" class="edge">
<title>p2-&gt;S3</title>
<path fill="none" stroke="#000000" d="M211,-796.2283C211,-784.7314 211,-772.0725 211,-759.7508"/>
<polygon fill="#000000" stroke="#000000" points="215.2001,-759.597 211,-747.597 206.8001,-759.5971 215.2001,-759.597"/>
</g>
<!-- p3&#45;&gt;S4 -->
<g id="edge7" class="edge">
<title>p3-&gt;S4</title>
<path fill="none" stroke="#000000" d="M211,-523.7785C211,-516.1387 211,-508.046 211,-499.9966"/>
<polygon fill="#000000" stroke="#000000" points="215.2001,-499.8778 211,-487.8778 206.8001,-499.8778 215.2001,-499.8778"/>
</g>
<!-- p4a&#45;&gt;S5 -->
<g id="edge11" class="edge">
<title>p4a-&gt;S5</title>
<path fill="none" stroke="#000000" d="M831.8271,-394.0889C808.8851,-380.7544 783.2498,-365.8546 758.9573,-351.7352"/>
<polygon fill="#000000" stroke="#000000" points="760.7595,-347.9248 748.274,-345.5258 756.5383,-355.1872 760.7595,-347.9248"/>
</g>
<!-- p4b&#45;&gt;S5 -->
<g id="edge12" class="edge">
<title>p4b-&gt;S5</title>
<path fill="none" stroke="#000000" d="M661,-394.0889C661,-382.6081 661,-369.9669 661,-357.6625"/>
<polygon fill="#000000" stroke="#000000" points="665.2001,-357.5258 661,-345.5258 656.8001,-357.5258 665.2001,-357.5258"/>
</g>
<!-- p4c&#45;&gt;S5 -->
<g id="edge13" class="edge">
<title>p4c-&gt;S5</title>
<path fill="none" stroke="#000000" d="M504.118,-394.0889C524.9982,-380.874 548.3077,-366.1217 570.4387,-352.1153"/>
<polygon fill="#000000" stroke="#000000" points="572.9566,-355.4922 580.8504,-345.5258 568.4644,-348.3943 572.9566,-355.4922"/>
</g>
<!-- resume&#45;&gt;End -->
<g id="edge15" class="edge">
<title>resume-&gt;End</title>
<path fill="none" stroke="#000000" d="M661,-121.9874C661,-114.2428 661,-106.0734 661,-98.043"/>
<polygon fill="#000000" stroke="#000000" points="665.2001,-98.0354 661,-86.0354 656.8001,-98.0355 665.2001,-98.0354"/>
</g>
<!-- tools -->
<g id="node15" class="node">
<title>tools</title>
<polygon fill="#fff9c4" stroke="#000000" points="416,-1450.2008 220,-1450.2008 220,-1348.9992 422,-1348.9992 422,-1444.2008 416,-1450.2008"/>
<polyline fill="none" stroke="#000000" points="416,-1450.2008 416,-1444.2008 "/>
<polyline fill="none" stroke="#000000" points="422,-1444.2008 416,-1444.2008 "/>
<text text-anchor="middle" x="321" y="-1434.7" font-family="Helvetica,Arial,sans-serif" font-size="13.00" fill="#000000">Essential Tools</text>
<text text-anchor="middle" x="321" y="-1419.1" font-family="Helvetica,Arial,sans-serif" font-size="13.00" fill="#000000">CMake (multi-file)</text>
<text text-anchor="middle" x="321" y="-1403.5" font-family="Helvetica,Arial,sans-serif" font-size="13.00" fill="#000000">Git (version control)</text>
<text text-anchor="middle" x="321" y="-1387.9" font-family="Helvetica,Arial,sans-serif" font-size="13.00" fill="#000000">Clang-Format (code style)</text>
<text text-anchor="middle" x="321" y="-1372.3" font-family="Helvetica,Arial,sans-serif" font-size="13.00" fill="#000000">Valgrind/GDB (debugging)</text>
<text text-anchor="middle" x="321" y="-1356.7" font-family="Helvetica,Arial,sans-serif" font-size="13.00" fill="#000000">GProf (profiling)</text>
</g>
<!-- tools&#45;&gt;S1 -->
<g id="edge16" class="edge">
<title>tools-&gt;S1</title>
<path fill="none" stroke="#c0c0c0" stroke-dasharray="1,5" d="M281.9084,-1348.9941C274.1401,-1338.9378 265.9086,-1328.2817 257.9105,-1317.9277"/>
<polygon fill="#c0c0c0" stroke="#c0c0c0" points="260.9961,-1315.0517 250.3363,-1308.1227 254.3484,-1320.1869 260.9961,-1315.0517"/>
</g>
</g>
</svg>